<svg xmlns="http://www.w3.org/2000/svg" xmlns:xlink="http://www.w3.org/1999/xlink" version="1.1" id="Layer_2" x="0px" y="0px" width="420px" height="150px" viewBox="0 0 420 150" enable-background="new 0 0 420 150" xml:space="preserve">
<g>
	<path fill="#00A1FF" d="M262.182 57.349c0.062-1.052 0.082-2.306 0.059-3.76c-0.082-1.417-0.461-2.804-1.137-4.162 c-0.672-1.417-1.85-2.574-3.531-3.474c-1.719-0.898-4.148-1.367-7.287-1.406h-16.352l-11.213 41.969h7.346l4.264-16.105h12.18 c3.68-0.039 6.576-0.729 8.691-2.067c2.164-1.282 3.73-2.746 4.699-4.391c1.008-1.723 1.643-3.235 1.906-4.536 C262.049 58.2 262.2 57.5 262.2 57.349z M255.145 56.286c-0.057 0.919-0.213 1.849-0.473 2.8 c-0.314 0.938-0.803 1.82-1.461 2.645c-0.602 0.785-1.453 1.408-2.553 1.868c-1.086 0.556-2.424 0.834-4.014 0.834h-10.762 l3.613-13.883h9.232c1.479 0 2.6 0.2 3.5 0.518c0.883 0.4 1.5 0.8 2 1.409c0.445 0.6 0.7 1.2 0.9 1.9 C255.146 55 255.2 55.7 255.1 56.286z"/>
	<polygon fill="#00A1FF" points="272.3,44.5 261.3,86.5 267.8,86.5 278.7,44.5"/>
	<path fill="#00A1FF" d="M302.727 82.054c-0.942 0-1.366-0.451-1.272-1.353c0.088-0.863 0.332-1.861 0.73-2.993l2.797-10.764 c0.496-1.837 0.781-3.368 0.855-4.592c0.033-0.575 0.02-1.256-0.045-2.042c-0.119-0.786-0.518-1.572-1.193-2.358 c-0.582-0.787-1.619-1.42-3.11-1.9c-0.781-0.268-1.688-0.46-2.719-0.575c-1.012-0.115-2.203-0.173-3.574-0.173 c-3.52-0.038-6.557 0.683-9.109 2.161c-2.557 1.537-4.346 4.178-5.367 7.923h6.16c0.316-0.944 0.728-1.754 1.232-2.428 c0.482-0.598 1.059-1.07 1.73-1.417c1.338-0.637 2.898-0.954 4.684-0.954c1.412 0 2.6 0.2 3.5 0.7 c0.879 0.5 1.3 1.5 1.2 2.977c-0.068 1.137-0.383 2.062-0.947 2.776c-0.617 0.713-1.523 1.128-2.719 1.2 c-2.129 0.192-4.301 0.376-6.522 0.549c-3.348 0.115-6.268 0.954-8.754 2.518c-1.199 0.782-2.16 1.812-2.887 3.1 c-0.748 1.335-1.197 2.938-1.346 4.807c-0.121 2.6 0.7 4.6 2.4 5.979c1.695 1.4 3.8 2.1 6.2 2.1 c1.873 0 3.682-0.334 5.426-1.006c1.781-0.629 3.357-1.586 4.732-2.869c0.004 1.2 0.3 2.1 1 2.8 c0.682 0.7 1.6 1.1 2.7 1.119c1.707-0.037 3.41-0.315 5.11-0.828l1.316-4.803 C304.254 81.9 303.5 82 302.7 82.054z M294.51 78.954c-1.498 2.028-3.812 3.061-6.939 3.1 c-1.248 0.039-2.365-0.25-3.352-0.863c-1.121-0.556-1.656-1.563-1.605-3.021c0.074-1.247 0.516-2.246 1.324-2.994 c0.768-0.71 1.689-1.199 2.768-1.468c1.137-0.364 2.295-0.585 3.471-0.662c1.102-0.077 2.139-0.134 3.107-0.172 c0.77-0.113 1.541-0.264 2.314-0.453c0.736-0.169 1.342-0.481 1.814-0.933l0.105 0.1 C297.006 74.5 296 77 294.5 78.954z"/>
	<path fill="#00A1FF" d="M333.409 56.127l-12.41 22.217h-0.111l-1.75-22.217h-6.828l3.43 29.396l-2.848 4.9 c-0.483 0.938-1.078 1.607-1.787 2.01c-0.744 0.383-1.607 0.574-2.59 0.574c-0.83-0.039-1.652-0.191-2.469-0.459l-1.527 5.6 c1.312 0.3 2.6 0.5 3.9 0.486c1.832 0 3.408-0.334 4.725-1.004c1.295-0.594 2.426-1.396 3.393-2.41 c0.973-1.092 1.877-2.287 2.715-3.586c0.801-1.34 1.605-2.707 2.41-4.104l18.703-31.335 C340.35 56.1 333.4 56.1 333.4 56.127z"/>
	<path fill="#00A1FF" d="M367.002 59.984c-0.787-1.359-1.969-2.488-3.543-3.388c-1.615-0.861-3.736-1.292-6.365-1.292 c-5.264 0.115-9.395 2.048-12.396 5.798c-3.074 3.732-4.76 8.047-5.053 12.946c-0.193 4.2 0.9 7.4 3.1 9.7 c2.209 2.4 5.2 3.5 8.9 3.588c7.199 0 12.127-3.373 14.779-10.233h-6.449c-1.273 3.262-3.736 4.909-7.387 4.9 c-2.438 0-4.176-0.66-5.213-1.983c-1.057-1.304-1.523-2.993-1.398-5.064c0.035-0.594 0.111-1.246 0.229-1.956h21.92 c0.266-1.015 0.461-2.269 0.588-3.762c0.094-1.57 0.031-3.159-0.186-4.767C368.358 62.9 367.8 61.4 367 59.984z M362.305 68.652h-15.381c0.834-2.438 2.043-4.377 3.621-5.817c1.617-1.459 3.642-2.208 6.076-2.247 c1.988 0 3.5 0.6 4.5 1.699c0.992 1.2 1.4 2.6 1.3 4.493C362.44 67.3 362.4 68 362.3 68.652z"/>
	<path fill="#00A1FF" d="M394.071 61.819l1.738-6.344c-1.01-0.114-2.041-0.171-3.096-0.171c-2.016 0.039-3.879 0.756-5.59 2.2 c-1.744 1.378-3.143 2.947-4.189 4.707l-0.104-0.115l1.547-5.922h-6.127l-7.92 30.39h6.486l3.525-13.5 c0.764-3.186 2.045-5.882 3.84-8.089c1.793-2.187 4.336-3.301 7.629-3.339C392.569 61.6 393.3 61.7 394.1 61.819z"/>
	<polygon fill="#00A1FF" points="195,86.2 210.3,86.2 221.7,44 206.4,44"/>
	<path fill="#00A1FF" d="M78.026 55.63l-8.25 30.66h15.267l3.47-12.819c1.773-6.439 5.013-8.566 11.488-8.566 c1.106 0 2.3 0.1 3.4 0.245l5.316-9.815c-1.388-0.354-2.853-0.472-5.397-0.472c-3.932 0-8.944 2.303-11.643 5.552H91.52 l1.311-4.785H78.026z"/>
	<path fill="#00A1FF" d="M176.361 54.722c-9.793 0-18.043 1.891-20.433 10.043h14.341c0.849-2.304 3.006-3.131 6.092-3.131 c2.312 0 4.8 0.5 4.8 2.658c0 3.782-6.862 3.309-11.18 3.545c-11.488 0.649-19.353 2.835-19.353 10.9 c0 5.8 6.1 8.2 13 8.152c4.471 0 9.637-1.24 12.336-3.721h0.155c-0.078 1.004-0.59 2.953-0.59 2.953h14.61l1.02-3.762 c0.839-3.851 4.699-15.249 4.699-19.514C195.792 55.4 183.6 54.7 176.4 54.722z M170.732 80 c-2.467 0-4.857-0.532-4.857-2.658c0-2.245 2.39-3.249 4.934-3.427c2.776-0.177 5.629-0.413 8.096-1.358 C177.979 77.1 175.9 80 170.7 80.006z"/>
	<path fill="#00A1FF" d="M129.697 54.806c-9.968 0-24.033 4.618-24.033 18.709c0 7.5 5.7 13.6 19.9 13.6 c17.309 0 20.323-7.635 21.327-9.708h-14.682c-0.772 1.065-2.704 2.19-6.027 2.19c-4.791 0-6.259-2.724-6.259-5.979h28.591 c0.696-1.895 0.774-3.671 0.774-5.329C149.326 58.6 138.6 54.8 129.7 54.806z M134.875 67.476h-13.6 c1.159-3.256 3.863-5.151 7.959-5.151c3.863 0 5.8 1.8 5.8 4.144C135.029 66.8 135 67.2 134.9 67.476z"/>
	<path fill="#00A1FF" d="M127.037 93.329c-2.78-0.012-7.919-0.221-10.527-0.699c-10.237 6.252-39.401 23.867-39.401 23.9 c-1.858 3.355-3.656 6.555-6.113 10.988c-0.91 1.643-5.804 10.4 4.8 4.061l48.873-30.117c5.362-2.922 9.727-5.955 13.216-9.07 c-0.114 0.021-0.23 0.043-0.34 0.057C134.933 92.7 129.8 93.3 127 93.329z"/>
	<path fill="#00A1FF" d="M84.419 92.646L47.22 92.622c-8.456 0.459-13.243-7.566-13.243-14.869c0-6.719 5.023-12.371 11.683-13.147 l8.148-0.952l1.979-7.962c3.152-12.677 14.491-21.531 27.575-21.531c9.694 0 18.6 4.9 23.9 13.053l3.413 5.3 c6.305-3.104 13.668-4.361 19.907-4.361c3.183 0 6.5 0.3 9.8 1.084c-5.34-5.283-12.719-8.535-20.843-8.535 c-0.768 0-1.527 0.038-2.281 0.098c-7.168-11.115-19.649-18.48-33.856-18.48c-18.879 0-34.717 12.993-39.074 30.5 c-12.476 1.456-22.16 12.054-22.16 24.919c0 13.9 9.7 26.7 25.1 26.678c0.075 0 9.9 0.1 34 0.057L84.419 92.646z"/>
	<polygon fill="#00A1FF" points="388.8,82.9 390.1,82.9 390.1,86.2 390.6,86.2 390.6,82.9 391.9,82.9 391.9,82.4 388.8,82.4"/>
	<path fill="#00A1FF" d="M395.27 82.403l-1.084 3.209l-1.092-3.209h-0.736V86.2h0.49v-2.24c0-0.09-0.002-0.23-0.006-0.422 c-0.006-0.189-0.008-0.33-0.008-0.424v-0.115l1.094 3.201h0.508l1.086-3.201c0 0.203-0.004 0.396-0.006 0.6 c-0.004 0.178-0.006 0.309-0.006 0.385v2.24H396v-3.797H395.27z"/>
	<path fill="#00A1FF" d="M164.268 99.482c-7.239 0-11.857 5.74-12.338 12.617c-0.554 7.9 4.7 9.6 8.1 9.6 c6.222 0 9.863-2.869 11.441-8.341h-5.562c-0.54 2.152-2.448 3.767-4.781 3.767c-3.14 0-3.803-2.092-3.61-4.844 c0.236-3.377 2.162-8.251 6.381-8.251c2.602 0 3.6 1.6 3.2 3.557h5.564C173.067 102 169.6 99.5 164.3 99.482z"/>
	<polygon fill="#00A1FF" points="190.2,99.9 184.6,99.9 178.7,121.3 194.2,121.3 195.6,116.5 185.6,116.5"/>
	<path fill="#00A1FF" d="M215.916 99.482c-7.359 0-12.363 5.71-12.859 12.796c-0.416 6 2.8 9.4 8.7 9.4 c7.657 0 12.485-5.71 13.009-13.214C225.332 100.9 219.6 99.5 215.9 99.482z M219.201 109 c-0.238 3.379-2.637 8.162-6.645 8.162c-2.961 0-4.131-2.092-3.939-4.844c0.247-3.527 2.492-8.251 6.799-8.251 C218.408 104.1 219.4 105.8 219.2 108.989z"/>
	<path fill="#00A1FF" d="M246.938 110.934c-1.016 3.378-1.811 6.218-5.64 6.218c-2.005 0-3.134-0.955-3.023-2.541 c0.078-1.136 0.484-2.242 0.765-3.259l3.282-11.422h-5.564l-3.204 11.153c-0.396 1.405-0.786 2.691-0.91 4.5 c-0.238 3.4 2.6 6.2 8.2 6.158c7.717 0 9.723-3.854 11.32-9.596l3.395-12.2h-5.563L246.938 110.934z"/>
	<path fill="#00A1FF" d="M273.813 99.93h-8.016l-6.01 21.349h9.543c8.465 0 12.9-5.681 13.363-12.317 C283.154 102.4 279.3 99.9 273.8 99.93z M277.098 109.408c-0.193 2.781-1.9 7.085-6.716 7.085h-3.681l3.309-11.778h3.201 C275.783 104.7 277.3 105.9 277.1 109.408z"/>
</g>
</svg>
